<?xml version="1.0" encoding="utf-8"?>
<!-- Generator: Adobe Illustrator 16.0.0, SVG Export Plug-In . SVG Version: 6.00 Build 0)  -->
<!DOCTYPE svg PUBLIC "-//W3C//DTD SVG 1.1//EN" "http://www.w3.org/Graphics/SVG/1.1/DTD/svg11.dtd">
<svg version="1.1" xmlns="http://www.w3.org/2000/svg" xmlns:xlink="http://www.w3.org/1999/xlink" x="0px" y="0px" width="50px"
	 height="50px" viewBox="0 0 50 50" enable-background="new 0 0 50 50" xml:space="preserve">
<g id="guias">
</g>
<g id="compras" display="none">
	<g display="inline">
		<g>
			<g>
				<path fill="#C91F26" d="M46.34,4.546H9.091v0.326L8.625,3.274C8.063,1.347,6.269,0,4.261,0H1.136C0.508,0,0,0.509,0,1.137
					c0,0.628,0.508,1.137,1.136,1.137h3.125c1.004,0,1.901,0.672,2.182,1.637l7.074,24.251l-3.625,4.53
					c-0.517,0.646-0.801,1.458-0.801,2.285c0,2.02,1.641,3.66,3.66,3.66h31.567c0.628,0,1.137-0.508,1.137-1.137
					c0-0.627-0.509-1.136-1.137-1.136H12.751c-0.765,0-1.387-0.622-1.387-1.388c0-0.313,0.107-0.622,0.304-0.866l3.652-4.564h22.289
					c1.753,0,3.367-1.024,4.114-2.61l7.93-16.851C49.88,9.6,50,9.062,50,8.528V8.206C50,6.187,48.359,4.546,46.34,4.546z
					 M47.727,8.528c0,0.203-0.045,0.407-0.131,0.59l-7.93,16.851c-0.373,0.792-1.181,1.305-2.058,1.305H15.625L9.659,6.819H46.34
					c0.765,0,1.387,0.623,1.387,1.387V8.528z"/>
				<path fill="#C91F26" d="M13.636,40.91c-2.507,0-4.545,2.038-4.545,4.545S11.129,50,13.636,50c2.507,0,4.545-2.038,4.545-4.545
					S16.143,40.91,13.636,40.91z M13.636,47.728c-1.253,0-2.272-1.02-2.272-2.272s1.02-2.272,2.272-2.272s2.273,1.02,2.273,2.272
					S14.889,47.728,13.636,47.728z"/>
				<path fill="#C91F26" d="M40.909,40.91c-2.507,0-4.546,2.038-4.546,4.545S38.402,50,40.909,50s4.546-2.038,4.546-4.545
					S43.416,40.91,40.909,40.91z M40.909,47.728c-1.253,0-2.272-1.02-2.272-2.272s1.02-2.272,2.272-2.272s2.272,1.02,2.272,2.272
					S42.162,47.728,40.909,47.728z"/>
			</g>
		</g>
	</g>
</g>
<g id="pago_y_fact" display="none">
	<g display="inline">
		<g>
			<g>
				<path fill="#C91F26" d="M47.727,25.21v-7.027c0-2.383-1.848-4.321-4.184-4.509L37.018,2.275
					c-0.605-1.054-1.582-1.808-2.75-2.121c-1.164-0.311-2.379-0.148-3.42,0.458L8.475,13.637H4.545C2.039,13.637,0,15.676,0,18.183
					v27.272c0,2.508,2.039,4.546,4.545,4.546h38.636c2.506,0,4.545-2.038,4.545-4.546v-7.027C49.047,37.957,50,36.707,50,35.229
					V28.41C50,26.931,49.047,25.681,47.727,25.21z M40.902,13.637h-9.904l7.428-4.325L40.902,13.637z M37.297,7.34L26.48,13.637
					h-4.486l14.181-8.256L37.297,7.34z M31.99,2.577c0.516-0.301,1.115-0.381,1.689-0.228c0.58,0.155,1.064,0.53,1.365,1.055
					l0.002,0.004L17.478,13.637h-4.486L31.99,2.577z M45.455,45.455c0,1.253-1.021,2.273-2.273,2.273H4.545
					c-1.253,0-2.272-1.021-2.272-2.273V18.183c0-1.253,1.02-2.272,2.272-2.272h38.636c1.252,0,2.273,1.02,2.273,2.272v6.818h-6.818
					c-3.76,0-6.818,3.058-6.818,6.817c0,3.761,3.059,6.818,6.818,6.818h6.818V45.455L45.455,45.455z M47.727,35.229
					c0,0.627-0.508,1.136-1.137,1.136h-7.953c-2.508,0-4.547-2.038-4.547-4.546c0-2.506,2.039-4.545,4.547-4.545h7.953
					c0.627,0,1.137,0.51,1.137,1.137V35.229z"/>
				<path fill="#C91F26" d="M38.637,29.547c-1.254,0-2.273,1.02-2.273,2.271c0,1.254,1.02,2.273,2.273,2.273
					c1.252,0,2.271-1.02,2.271-2.273C40.908,30.566,39.889,29.547,38.637,29.547z"/>
			</g>
		</g>
	</g>
</g>
<g id="envios" display="none">
	<g display="inline">
		<g>
			<path fill="#C91F26" d="M46.5,22.595l-1.295-5.179c0.354-0.075,0.62-0.389,0.62-0.766v-0.835c0-1.813-1.476-3.288-3.289-3.288
				h-5.897v-1.723c0-0.892-0.726-1.618-1.618-1.618H4.958c-0.892,0-1.618,0.726-1.618,1.618v14.197c0,0.432,0.351,0.782,0.783,0.782
				s0.783-0.351,0.783-0.782V10.804c0-0.029,0.023-0.052,0.052-0.052h30.063c0.029,0,0.053,0.023,0.053,0.052v14.197
				c0,0.433,0.351,0.783,0.782,0.783c0.433,0,0.783-0.351,0.783-0.783v-0.888h9.235c0.001,0,0.002,0,0.002,0
				c0.001,0,0.002,0,0.002,0c1.137,0.001,2.102,0.747,2.434,1.774h-2.435c-0.433,0-0.783,0.351-0.783,0.783v1.67
				c0,1.353,1.101,2.453,2.453,2.453h0.888v3.444h-2.048c-0.672-1.941-2.518-3.34-4.686-3.34c-2.167,0-4.014,1.398-4.686,3.34
				h-0.377v-5.897c0-0.433-0.351-0.783-0.783-0.783c-0.432,0-0.782,0.351-0.782,0.783v5.897H18.83
				c-0.673-1.941-2.519-3.34-4.686-3.34c-2.168,0-4.014,1.398-4.687,3.34h-4.5c-0.028,0-0.052-0.023-0.052-0.052v-1.723h3.393
				c0.432,0,0.782-0.351,0.782-0.783c0-0.432-0.351-0.782-0.782-0.782H0.783C0.351,30.898,0,31.249,0,31.681
				c0,0.433,0.351,0.783,0.783,0.783h2.558v1.723c0,0.892,0.726,1.618,1.617,1.618h4.229c0,0.017-0.002,0.034-0.002,0.052
				c0,2.734,2.225,4.958,4.959,4.958c2.733,0,4.958-2.224,4.958-4.958c0-0.018-0.001-0.035-0.002-0.052h17.644
				c0,0.017-0.001,0.034-0.001,0.052c0,2.734,2.225,4.958,4.958,4.958c2.734,0,4.958-2.224,4.958-4.958
				c0-0.018-0.001-0.035-0.001-0.052h2.559c0.433,0,0.783-0.351,0.783-0.783v-8.351C50,24.609,48.479,22.896,46.5,22.595z
				 M36.639,14.092h5.897c0.95,0,1.723,0.773,1.723,1.723v0.052h-7.62V14.092z M36.639,22.548v-5.115h6.957l1.278,5.115H36.639z
				 M14.145,39.249c-1.871,0-3.393-1.521-3.393-3.393c0-1.87,1.521-3.393,3.393-3.393c1.87,0,3.392,1.522,3.392,3.393
				C17.536,37.728,16.015,39.249,14.145,39.249z M41.701,39.249c-1.87,0-3.393-1.521-3.393-3.393c0-1.87,1.522-3.393,3.393-3.393
				c1.871,0,3.393,1.522,3.393,3.393C45.094,37.728,43.572,39.249,41.701,39.249z M48.435,29.229h-0.888
				c-0.489,0-0.887-0.398-0.887-0.888v-0.888h1.774V29.229L48.435,29.229z"/>
		</g>
	</g>
	<g display="inline">
		<g>
			<path fill="#C91F26" d="M14.145,34.238c-0.893,0-1.618,0.727-1.618,1.618c0,0.893,0.726,1.618,1.618,1.618
				c0.892,0,1.617-0.726,1.617-1.618C15.762,34.965,15.036,34.238,14.145,34.238z"/>
		</g>
	</g>
	<g display="inline">
		<g>
			<path fill="#C91F26" d="M41.701,34.238c-0.892,0-1.617,0.727-1.617,1.618c0,0.893,0.726,1.618,1.617,1.618
				c0.893,0,1.618-0.726,1.618-1.618C43.319,34.965,42.594,34.238,41.701,34.238z"/>
		</g>
	</g>
	<g display="inline">
		<g>
			<path fill="#C91F26" d="M32.516,30.898H20.824c-0.432,0-0.782,0.351-0.782,0.783c0,0.432,0.351,0.782,0.782,0.782h11.691
				c0.433,0,0.783-0.351,0.783-0.782C33.299,31.249,32.948,30.898,32.516,30.898z"/>
		</g>
	</g>
	<g display="inline">
		<g>
			<path fill="#C91F26" d="M12.474,27.559H2.453c-0.433,0-0.783,0.35-0.783,0.782s0.351,0.783,0.783,0.783h10.021
				c0.433,0,0.783-0.351,0.783-0.783S12.906,27.559,12.474,27.559z"/>
		</g>
	</g>
	<g display="inline">
		<g>
			<path fill="#C91F26" d="M27.224,16.931c-0.306-0.306-0.802-0.306-1.107,0l-6.962,6.962l-3.621-3.622
				c-0.307-0.306-0.802-0.306-1.107,0s-0.306,0.801,0,1.107l4.175,4.175c0.153,0.153,0.354,0.229,0.554,0.229
				s0.401-0.076,0.554-0.229l7.516-7.515C27.529,17.732,27.529,17.237,27.224,16.931z"/>
		</g>
	</g>
</g>
<g id="devoluciones" display="none">
	<g display="inline">
		<g>
			<g>
				<path fill="#C91F26" d="M41.666,27.527V11.458c0-0.197-0.068-0.37-0.164-0.527l0.016-0.009l-6.25-10.417
					C35.08,0.192,34.74,0,34.375,0H7.292C6.925,0,6.586,0.192,6.398,0.505l-6.25,10.417l0.015,0.009C0.069,11.088,0,11.262,0,11.458
					v29.167c0,0.576,0.466,1.043,1.042,1.043h26.486C28.893,46.469,33.309,50,38.541,50C44.859,50,50,44.859,50,38.543
					C50,33.309,46.469,28.893,41.666,27.527z M33.785,2.083l5,8.333H26.895l-1.666-8.333H33.785z M18.562,2.083h4.544l1.684,8.333
					h-7.894L18.562,2.083z M25,12.5v4.167h-8.337L16.649,12.5H25z M7.882,2.083h8.558l-1.65,8.333H2.881L7.882,2.083z
					 M27.137,39.584H2.083V12.5h12.5v5.208c0,0.576,0.466,1.042,1.042,1.042h10.416c0.576,0,1.043-0.466,1.043-1.042L27.066,12.5
					h12.518v14.637c-0.344-0.031-0.691-0.053-1.043-0.053c-6.316,0-11.457,5.141-11.457,11.459
					C27.084,38.895,27.105,39.24,27.137,39.584z M38.541,47.918c-5.17,0-9.375-4.207-9.375-9.375c0-5.17,4.205-9.375,9.375-9.375
					s9.375,4.205,9.375,9.375C47.916,43.711,43.711,47.918,38.541,47.918z"/>
				<path fill="#C91F26" d="M35.994,37.326c0.479-0.32,0.607-0.967,0.289-1.445c-0.322-0.48-0.971-0.605-1.445-0.289l-0.965,0.645
					c0.85-1.719,2.623-2.902,4.668-2.902c1.734,0,3.348,0.857,4.32,2.297c0.322,0.477,0.971,0.602,1.445,0.279
					c0.477-0.322,0.604-0.969,0.279-1.445c-1.359-2.014-3.619-3.215-6.045-3.215c-4.02,0-7.291,3.271-7.291,7.293
					c0,0.383,0.211,0.736,0.549,0.918c0.154,0.082,0.324,0.123,0.492,0.123c0.201,0,0.402-0.059,0.578-0.176L35.994,37.326z"/>
				<path fill="#C91F26" d="M45.283,37.623c-0.34-0.18-0.748-0.162-1.07,0.053l-3.125,2.082c-0.477,0.32-0.607,0.967-0.287,1.445
					c0.318,0.48,0.967,0.604,1.443,0.289l0.967-0.645c-0.852,1.719-2.625,2.902-4.67,2.902c-1.732,0-3.346-0.857-4.318-2.297
					c-0.324-0.479-0.971-0.602-1.447-0.279c-0.477,0.32-0.602,0.969-0.279,1.445c1.359,2.014,3.621,3.215,6.045,3.215
					c4.021,0,7.293-3.271,7.293-7.293C45.834,38.158,45.621,37.805,45.283,37.623z"/>
			</g>
		</g>
	</g>
</g>
<g id="sucursales" display="none">
	<g display="inline">
		<g>
			<path fill="#C91F26" d="M30.897,37.315c4.215-6.989,9.541-16.815,9.541-21.867C40.438,6.928,33.511,0,24.989,0
				C16.469,0,9.542,6.928,9.542,15.449c0,5.051,5.327,14.877,9.54,21.867c-5,0.378-16.377,1.735-16.377,6.234
				c0,4.43,11.551,6.45,22.297,6.45c10.734,0,22.295-2.021,22.295-6.45C47.286,39.051,35.897,37.693,30.897,37.315L30.897,37.315z
				 M11.673,15.449c0-7.347,5.98-13.327,13.316-13.327c7.348,0,13.328,5.98,13.328,13.327c0,6.418-10.225,22.52-13.328,27.254
				C21.888,37.969,11.673,21.867,11.673,15.449z M24.989,47.866c-13.051,0-20.163-2.856-20.163-4.327
				c0-1.132,4.694-3.57,15.51-4.192c2.03,3.274,3.571,5.592,3.775,5.866c0.275,0.368,1.083,0.807,1.766,0
				c0.213-0.254,1.744-2.592,3.775-5.866c10.816,0.622,15.51,3.05,15.51,4.192C45.153,45.021,38.04,47.866,24.989,47.866
				L24.989,47.866z"/>
			<path fill="#C91F26" d="M31.714,15.449c0-3.715-3.01-6.725-6.725-6.725c-3.714,0-6.724,3.01-6.724,6.725
				c0,3.713,3.01,6.724,6.724,6.724C28.704,22.173,31.714,19.162,31.714,15.449z M20.388,15.449c0-2.542,2.061-4.602,4.602-4.602
				s4.604,2.061,4.604,4.602c0,2.541-2.063,4.602-4.604,4.602S20.388,17.99,20.388,15.449z"/>
		</g>
	</g>
</g>
<g id="retiro-tienda" display="none">
	<g display="inline">
		<path fill="#C91F26" d="M43.555,4.631V2.93c0-1.615-1.314-2.93-2.93-2.93H9.375c-1.615,0-2.93,1.314-2.93,2.93v1.702
			C0.074,16.396,0,16.047,0,16.601c0,0,0,0,0,0.001v1.953c0,1.693,0.979,3.267,2.539,4.163v26.306C2.539,49.563,2.977,50,3.516,50
			h42.969c0.539,0,0.977-0.438,0.977-0.977V22.717C49.005,21.822,50,20.229,50,18.555v-1.953c0,0,0,0,0-0.001
			C50,16.041,49.862,16.281,43.555,4.631z M47.372,15.625H41.33l-3.258-9.766h3.929L47.372,15.625z M33.789,17.578h5.859v0.977
			c0,1.615-1.314,2.93-2.93,2.93s-2.93-1.314-2.93-2.93V17.578z M33.64,15.625l-1.629-9.766h4.003l3.256,9.766H33.64z M8.398,2.93
			c0-0.539,0.438-0.977,0.977-0.977h31.25c0.538,0,0.977,0.438,0.977,0.977v0.977c-0.93,0-32.265,0-33.203,0V2.93z M31.836,17.578
			v0.977c0,1.615-1.314,2.93-2.93,2.93s-2.93-1.314-2.93-2.93v-0.977H31.836z M25.977,15.625V5.859h4.056l1.629,9.766H25.977z
			 M18.339,15.625l1.629-9.766h4.056v9.766H18.339z M24.023,17.578v0.977c0,1.615-1.314,2.93-2.93,2.93s-2.93-1.314-2.93-2.93
			v-0.977H24.023z M10.729,15.625l3.257-9.766h4.002l-1.628,9.766H10.729z M16.211,17.578v0.977c0,1.615-1.314,2.93-2.93,2.93
			s-2.93-1.314-2.93-2.93v-0.977H16.211z M7.999,5.859h3.928L8.67,15.625H2.627L7.999,5.859z M1.953,18.555v-0.977h6.445v0.977
			c0,1.533-1.537,2.93-3.223,2.93c-0.424,0-0.866-0.092-1.277-0.268C2.735,20.721,1.953,19.651,1.953,18.555z M20.117,37.695v1.953
			v1.616v6.782h-9.766v-6.782v-1.616v-1.953v-8.398h9.766V37.695z M45.508,48.047H22.07V28.32c0-0.539-0.438-0.977-0.977-0.977
			H9.375c-0.539,0-0.977,0.438-0.977,0.977v19.727H4.492V23.39c0.226,0.031,0.455,0.048,0.684,0.048
			c1.286,0,2.584-0.509,3.564-1.397c0.218-0.197,0.412-0.406,0.587-0.626c0.888,1.225,2.329,2.023,3.954,2.023
			c1.595,0,3.014-0.769,3.906-1.957c0.892,1.188,2.311,1.957,3.906,1.957s3.014-0.769,3.906-1.957
			c0.893,1.188,2.312,1.957,3.906,1.957s3.014-0.769,3.906-1.957c0.893,1.188,2.312,1.957,3.906,1.957
			c1.626,0,3.066-0.798,3.954-2.023c0.174,0.22,0.369,0.43,0.587,0.626c0.979,0.888,2.278,1.397,3.564,1.397
			c0.228,0,0.458-0.016,0.684-0.047V48.047z M48.047,18.555c0,1.128-0.811,2.209-2.02,2.693c-0.396,0.156-0.798,0.236-1.203,0.236
			c-1.686,0-3.223-1.396-3.223-2.93v-0.977h6.445V18.555z"/>
		<g>
			<g>
				<path fill="#C91F26" d="M42.578,37.695h-0.977V28.32c0-0.539-0.438-0.977-0.977-0.977H28.906c-0.539,0-0.977,0.438-0.977,0.977
					v9.375h-0.977c-0.539,0-0.977,0.438-0.977,0.977s0.438,0.977,0.977,0.977h15.625c0.539,0,0.977-0.438,0.977-0.977
					S43.117,37.695,42.578,37.695z M39.648,37.695h-9.766v-8.398h9.766V37.695z"/>
			</g>
		</g>
	</g>
</g>
<g id="ayuda">
	<path fill="#C91F26" d="M38.255,12.964c0,1.515-1.103,2.436-1.908,3.112c-0.305,0.256-0.872,0.723-0.871,0.898
		c0.006,0.685-0.545,1.231-1.229,1.231c-0.004,0-0.007,0-0.011,0c-0.68,0-1.233-0.53-1.239-1.211
		c-0.011-1.342,0.969-2.146,1.757-2.808c0.617-0.519,1.022-0.884,1.022-1.218c0-0.676-0.55-1.226-1.227-1.226
		c-0.676,0-1.227,0.55-1.227,1.226c0,0.685-0.555,1.24-1.239,1.24s-1.24-0.555-1.24-1.24c0-2.043,1.663-3.706,3.706-3.706
		C36.593,9.264,38.255,10.921,38.255,12.964z M34.271,19.35c-0.686,0-1.213,0.555-1.213,1.24v0.009c0,0.685,0.528,1.235,1.213,1.235
		s1.239-0.56,1.239-1.244C35.51,19.905,34.955,19.35,34.271,19.35z M9.283,27.985c-0.685,0-1.24,0.555-1.24,1.239
		c0,0.686,0.555,1.24,1.24,1.24h0.103c0.685,0,1.24-0.555,1.24-1.24c0-0.685-0.555-1.239-1.24-1.239H9.283z M13.591,27.985
		c-0.685,0-1.239,0.555-1.239,1.239c0,0.686,0.555,1.24,1.239,1.24h0.104c0.685,0,1.239-0.555,1.239-1.24
		c0-0.685-0.555-1.239-1.239-1.239H13.591z M50,8.185v13.954c0,3.304-2.649,5.984-5.953,5.984H27.971
		c-0.314,0-0.573-0.002-0.79-0.006c-0.227-0.005-0.482-0.007-0.582,0.004c-0.104,0.069-0.357,0.302-0.603,0.528
		c-0.098,0.089-0.207,0.188-0.326,0.296l-4.548,4.146c-0.363,0.331-0.9,0.417-1.349,0.219s-0.765-0.644-0.765-1.135V19.032H6.022
		c-1.937,0-3.542,1.587-3.542,3.524V36.51c0,1.937,1.605,3.459,3.542,3.459H23.98c0.309,0,0.598,0.143,0.827,0.351l3.706,3.417
		V31.954c0-0.685,0.555-1.24,1.239-1.24s1.239,0.556,1.239,1.24v14.592c0,0.491-0.28,0.93-0.729,1.127
		c-0.161,0.071-0.322,0.1-0.491,0.1c-0.304,0-0.604-0.125-0.836-0.338l-5.436-4.986H6.022C2.718,42.448,0,39.813,0,36.509V22.556
		c0-3.304,2.718-6.003,6.022-6.003h12.986V8.185c0-3.304,2.739-5.957,6.043-5.957h18.996C47.351,2.228,50,4.881,50,8.185z
		 M47.521,8.185c0-1.937-1.537-3.478-3.474-3.478H25.051c-1.937,0-3.563,1.542-3.563,3.478v9.619v11.561l2.492-2.252
		c0.115-0.105,0.245-0.202,0.339-0.289c1.138-1.049,1.429-1.217,2.914-1.186c0.202,0.004,0.443,0.005,0.737,0.005h16.076
		c1.937,0,3.474-1.568,3.474-3.505V8.185L47.521,8.185z"/>
</g>
<g id="service" display="none">
	<g display="inline">
		<path fill="#C91F26" d="M8.794,38.666c-0.7,0-1.373,0.176-1.97,0.504C3.679,35.139,1.953,30.131,1.953,25
			C1.953,12.292,12.292,1.953,25,1.953c1.545,0,3.09,0.154,4.59,0.457c0.527,0.107,1.044-0.235,1.15-0.764
			c0.107-0.529-0.234-1.044-0.764-1.151C28.35,0.167,26.675,0,25,0C18.322,0,12.044,2.601,7.322,7.322S0,18.323,0,25
			c0,5.617,1.907,11.097,5.38,15.492c-0.447,0.668-0.688,1.453-0.688,2.275c0,1.096,0.427,2.127,1.202,2.9
			c0.774,0.775,1.804,1.201,2.9,1.201s2.125-0.426,2.9-1.201c0.775-0.773,1.201-1.805,1.201-2.9s-0.426-2.125-1.201-2.9
			C10.919,39.094,9.89,38.666,8.794,38.666z M10.313,44.287c-0.405,0.406-0.945,0.629-1.519,0.629s-1.113-0.223-1.519-0.629
			s-0.629-0.945-0.629-1.52s0.224-1.113,0.629-1.52c0.406-0.404,0.945-0.629,1.519-0.629s1.113,0.225,1.519,0.629
			c0.406,0.406,0.629,0.945,0.629,1.52S10.719,43.881,10.313,44.287z"/>
		<path fill="#C91F26" d="M44.619,9.505c1.063-1.593,0.891-3.77-0.514-5.174c-0.773-0.774-1.805-1.201-2.9-1.201
			s-2.125,0.427-2.9,1.201c-0.773,0.775-1.201,1.805-1.201,2.9s0.428,2.125,1.201,2.9c0.775,0.775,1.805,1.201,2.9,1.201
			c0.701,0,1.373-0.175,1.971-0.503c3.145,4.032,4.871,9.04,4.871,14.17c0,12.708-10.338,23.046-23.047,23.046
			c-1.53,0-3.06-0.15-4.546-0.449c-0.529-0.105-1.043,0.238-1.149,0.768c-0.105,0.527,0.237,1.043,0.766,1.148
			C21.683,49.836,23.342,50,25,50c6.678,0,12.955-2.602,17.678-7.322C47.398,37.955,50,31.678,50,25
			C50,19.382,48.092,13.9,44.619,9.505z M39.688,8.751c-0.406-0.406-0.631-0.945-0.631-1.52c0-0.574,0.225-1.113,0.631-1.519
			c0.404-0.406,0.945-0.629,1.518-0.629c0.574,0,1.113,0.224,1.52,0.629c0.838,0.838,0.838,2.201,0,3.039
			c-0.406,0.405-0.945,0.629-1.52,0.629S40.092,9.156,39.688,8.751z"/>
		<path fill="#C91F26" d="M20.97,41.797c0,0.539,0.438,0.977,0.977,0.977h6.106c0.539,0,0.977-0.438,0.977-0.977v-1.893
			c1.284-0.346,2.512-0.855,3.666-1.52l1.336,1.336c0.184,0.184,0.432,0.287,0.691,0.287c0.258,0,0.507-0.104,0.689-0.287
			l4.316-4.318c0.381-0.383,0.381-1,0-1.381l-1.336-1.336c0.666-1.154,1.174-2.381,1.52-3.666h1.887
			c0.539,0,0.977-0.436,0.977-0.977v-6.105c0-0.539-0.438-0.977-0.977-0.977h-1.887c-0.346-1.283-0.854-2.512-1.52-3.665
			l1.328-1.327c0.184-0.184,0.287-0.432,0.287-0.691c-0.002-0.259-0.104-0.508-0.287-0.691l-4.319-4.315
			c-0.381-0.381-0.999-0.381-1.381,0l-1.325,1.326c-1.154-0.665-2.382-1.173-3.666-1.519V8.203c0-0.54-0.438-0.977-0.977-0.977
			h-6.106c-0.539,0-0.977,0.437-0.977,0.977v1.876c-1.284,0.345-2.511,0.854-3.665,1.519l-1.326-1.326c-0.381-0.381-1-0.381-1.381,0
			l-4.319,4.316c-0.184,0.183-0.287,0.432-0.287,0.69c0,0.26,0.103,0.508,0.286,0.691l1.328,1.327
			c-0.665,1.153-1.173,2.381-1.519,3.665H8.205c-0.54,0-0.977,0.438-0.977,0.977l-0.003,6.105c0,0.26,0.103,0.508,0.286,0.691
			s0.432,0.285,0.691,0.285h1.886c0.346,1.285,0.854,2.512,1.519,3.666l-1.335,1.336c-0.381,0.381-0.381,0.998,0,1.381l4.316,4.318
			c0.183,0.184,0.432,0.287,0.69,0.287h0c0.259,0,0.507-0.104,0.69-0.287l1.336-1.336c1.154,0.664,2.381,1.174,3.665,1.52V41.797z
			 M17.688,36.33c-0.386-0.25-0.895-0.195-1.221,0.131l-1.189,1.188l-2.936-2.938l1.188-1.188c0.325-0.326,0.379-0.834,0.13-1.221
			c-0.886-1.369-1.508-2.871-1.85-4.465c-0.097-0.449-0.494-0.771-0.955-0.771H9.179l0.002-4.152h1.675
			c0.46,0,0.858-0.321,0.955-0.771c0.342-1.592,0.964-3.094,1.85-4.464c0.25-0.386,0.195-0.896-0.13-1.22l-1.18-1.182l2.938-2.935
			l1.179,1.18c0.326,0.325,0.834,0.379,1.221,0.129c1.37-0.885,2.872-1.508,4.464-1.85c0.45-0.097,0.771-0.495,0.771-0.955V9.18
			h4.153v1.667c0,0.46,0.321,0.858,0.771,0.955c1.592,0.342,3.094,0.964,4.464,1.85c0.387,0.25,0.896,0.196,1.22-0.13l1.18-1.179
			l2.938,2.935l-1.18,1.181c-0.326,0.325-0.379,0.835-0.129,1.221c0.885,1.37,1.506,2.872,1.85,4.464
			c0.096,0.45,0.494,0.771,0.953,0.771h1.68v4.152h-1.68c-0.459,0-0.857,0.322-0.953,0.771c-0.342,1.592-0.965,3.096-1.85,4.465
			c-0.25,0.387-0.197,0.895,0.129,1.221l1.188,1.188l-2.936,2.938l-1.188-1.188c-0.325-0.326-0.834-0.381-1.221-0.131
			c-1.37,0.887-2.872,1.508-4.464,1.85c-0.45,0.098-0.771,0.494-0.771,0.955v1.686h-4.153v-1.686c0-0.459-0.322-0.857-0.771-0.955
			C20.56,37.838,19.058,37.217,17.688,36.33z"/>
		<path fill="#C91F26" d="M33.069,25c0-4.449-3.62-8.07-8.069-8.07s-8.069,3.621-8.069,8.07c0,4.449,3.62,8.068,8.069,8.068
			S33.069,29.449,33.069,25z M18.884,25c0-3.373,2.744-6.117,6.116-6.117c3.373,0,6.116,2.744,6.116,6.117
			c0,3.371-2.743,6.115-6.116,6.115C21.627,31.115,18.884,28.373,18.884,25z"/>
		<path fill="#C91F26" d="M33.992,3.693c0.257,0,0.509-0.104,0.69-0.286c0.182-0.183,0.286-0.435,0.286-0.691
			c0-0.256-0.104-0.508-0.286-0.69c-0.182-0.182-0.434-0.286-0.69-0.286c-0.258,0-0.509,0.104-0.69,0.286
			c-0.182,0.183-0.286,0.434-0.286,0.69c0,0.258,0.104,0.509,0.286,0.691C33.483,3.589,33.734,3.693,33.992,3.693z"/>
		<path fill="#C91F26" d="M16.051,46.324c-0.257,0-0.509,0.104-0.69,0.285s-0.286,0.434-0.286,0.691s0.104,0.508,0.286,0.689
			s0.434,0.287,0.69,0.287s0.509-0.105,0.69-0.287s0.286-0.434,0.286-0.689c0-0.258-0.104-0.51-0.286-0.691
			S16.308,46.324,16.051,46.324z"/>
	</g>
</g>
</svg>
