<?xml version="1.0" encoding="utf-8"?>
<!-- Generator: Adobe Illustrator 16.0.0, SVG Export Plug-In . SVG Version: 6.00 Build 0)  -->
<!DOCTYPE svg PUBLIC "-//W3C//DTD SVG 1.1//EN" "http://www.w3.org/Graphics/SVG/1.1/DTD/svg11.dtd">
<svg version="1.1" id="Capa_1" xmlns="http://www.w3.org/2000/svg" xmlns:xlink="http://www.w3.org/1999/xlink" x="0px" y="0px"
	 width="50px" height="50px" viewBox="0 0 50 50" enable-background="new 0 0 50 50" xml:space="preserve">
<g id="guias">
</g>
<g id="compras" display="none">
	<g display="inline">
		<g>
			<g>
				<path fill="#C91F26" d="M46.34,4.546H9.091v0.326L8.625,3.274C8.063,1.347,6.269,0,4.261,0H1.136C0.508,0,0,0.509,0,1.137
					c0,0.628,0.508,1.137,1.136,1.137h3.125c1.004,0,1.901,0.672,2.182,1.637l7.074,24.251l-3.625,4.529
					c-0.517,0.646-0.801,1.459-0.801,2.285c0,2.021,1.641,3.66,3.66,3.66h31.567c0.627,0,1.137-0.508,1.137-1.137
					c0-0.627-0.51-1.137-1.137-1.137H12.751c-0.765,0-1.387-0.621-1.387-1.387c0-0.313,0.107-0.623,0.304-0.867l3.652-4.563h22.29
					c1.752,0,3.367-1.024,4.113-2.61l7.93-16.851C49.88,9.6,50,9.062,50,8.528V8.206C50,6.187,48.359,4.546,46.34,4.546z
					 M47.727,8.528c0,0.203-0.045,0.407-0.131,0.59l-7.93,16.851c-0.373,0.793-1.182,1.305-2.059,1.305H15.625L9.659,6.819H46.34
					c0.766,0,1.387,0.623,1.387,1.387V8.528z"/>
				<path fill="#C91F26" d="M13.636,40.91c-2.507,0-4.545,2.037-4.545,4.545c0,2.507,2.038,4.545,4.545,4.545
					c2.507,0,4.545-2.038,4.545-4.545C18.181,42.947,16.143,40.91,13.636,40.91z M13.636,47.729c-1.253,0-2.272-1.021-2.272-2.272
					s1.02-2.272,2.272-2.272c1.252,0,2.273,1.021,2.273,2.272S14.889,47.729,13.636,47.729z"/>
				<path fill="#C91F26" d="M40.909,40.91c-2.507,0-4.546,2.037-4.546,4.545c0,2.507,2.039,4.545,4.546,4.545
					s4.546-2.038,4.546-4.545C45.455,42.947,43.416,40.91,40.909,40.91z M40.909,47.729c-1.253,0-2.272-1.021-2.272-2.272
					s1.021-2.272,2.272-2.272s2.272,1.021,2.272,2.272S42.162,47.729,40.909,47.729z"/>
			</g>
		</g>
	</g>
</g>
<g id="pago_y_fact" display="none">
	<g display="inline">
		<g>
			<g>
				<path fill="#C91F26" d="M47.727,25.21v-7.027c0-2.383-1.848-4.321-4.184-4.509L37.018,2.275
					c-0.604-1.054-1.582-1.808-2.75-2.121c-1.164-0.311-2.379-0.148-3.42,0.458L8.475,13.637h-3.93C2.039,13.637,0,15.676,0,18.183
					v27.272c0,2.508,2.039,4.546,4.545,4.546h38.637c2.506,0,4.545-2.038,4.545-4.546v-7.027C49.047,37.957,50,36.707,50,35.229
					V28.41C50,26.932,49.047,25.682,47.727,25.21z M40.902,13.637h-9.904l7.428-4.325L40.902,13.637z M37.297,7.34L26.48,13.637
					h-4.486l14.181-8.256L37.297,7.34z M31.99,2.577c0.516-0.301,1.115-0.381,1.689-0.228c0.579,0.155,1.063,0.53,1.364,1.055
					l0.002,0.004L17.478,13.637h-4.486L31.99,2.577z M45.455,45.455c0,1.253-1.021,2.273-2.273,2.273H4.545
					c-1.253,0-2.272-1.021-2.272-2.273V18.183c0-1.253,1.02-2.272,2.272-2.272h38.637c1.252,0,2.272,1.02,2.272,2.272v6.818h-6.817
					c-3.761,0-6.818,3.058-6.818,6.817c0,3.761,3.059,6.818,6.818,6.818h6.817L45.455,45.455L45.455,45.455z M47.727,35.229
					c0,0.627-0.508,1.137-1.137,1.137h-7.953c-2.508,0-4.547-2.038-4.547-4.547c0-2.506,2.039-4.545,4.547-4.545h7.953
					c0.627,0,1.137,0.511,1.137,1.138V35.229z"/>
				<path fill="#C91F26" d="M38.637,29.547c-1.254,0-2.273,1.02-2.273,2.271c0,1.254,1.021,2.272,2.273,2.272
					c1.252,0,2.271-1.021,2.271-2.272S39.889,29.547,38.637,29.547z"/>
			</g>
		</g>
	</g>
</g>
<g id="envios">
	<g>
		<g>
			<path fill="#C91F26" d="M46.379,22.512l-1.34-5.358c0.366-0.078,0.642-0.402,0.642-0.792v-0.864c0-1.875-1.526-3.402-3.402-3.402
				h-6.102v-1.782c0-0.923-0.75-1.674-1.673-1.674H3.402c-0.923,0-1.674,0.751-1.674,1.674V21.54c0,0.447,0.363,0.81,0.811,0.81
				c0.447,0,0.81-0.363,0.81-0.81V10.313c0-0.03,0.024-0.054,0.054-0.054h31.102c0.029,0,0.055,0.023,0.055,0.054v14.688
				c0,0.448,0.362,0.811,0.809,0.811c0.448,0,0.81-0.363,0.81-0.811v-0.919h9.555c0.001,0,0.002,0,0.002,0c0.001,0,0.002,0,0.002,0
				c1.177,0.001,2.176,0.773,2.519,1.835h-2.52c-0.448,0-0.811,0.364-0.811,0.811v1.728c0,1.4,1.14,2.538,2.538,2.538h0.92v3.563
				h-2.12c-0.695-2.008-2.604-3.455-4.848-3.455c-2.241,0-4.152,1.446-4.847,3.455h-0.391v-6.101c0-0.448-0.363-0.811-0.81-0.811
				c-0.448,0-0.811,0.364-0.811,0.811v6.101H17.753c-0.696-2.008-2.606-3.455-4.848-3.455c-2.243,0-4.153,1.446-4.849,3.455H3.401
				c-0.029,0-0.054-0.023-0.054-0.053V32.72h3.51c0.447,0,0.809-0.362,0.809-0.81s-0.363-0.81-0.809-0.81H1.41
				c-0.447,0.002-0.81,0.364-0.81,0.812s0.363,0.81,0.81,0.81h0.318v1.783c0,0.923,0.751,1.673,1.673,1.673h4.375
				c0,0.019-0.002,0.035-0.002,0.055c0,2.828,2.302,5.129,5.13,5.129c2.827,0,5.129-2.301,5.129-5.129
				c0-0.02-0.001-0.036-0.002-0.055h18.254c0,0.019-0.001,0.035-0.001,0.055c0,2.828,2.302,5.129,5.129,5.129
				c2.829,0,5.13-2.301,5.13-5.129c0-0.02-0.001-0.036-0.001-0.055h2.646c0.449,0,0.811-0.362,0.811-0.81v-8.64
				C50,24.595,48.426,22.823,46.379,22.512z M36.177,13.715h6.102c0.983,0,1.782,0.8,1.782,1.783v0.054h-7.884V13.715z
				 M36.177,22.463v-5.291h7.197l1.323,5.291H36.177z M12.906,39.741c-1.936,0-3.51-1.573-3.51-3.511c0-1.934,1.573-3.51,3.51-3.51
				c1.935,0,3.509,1.574,3.509,3.51C16.415,38.168,14.841,39.741,12.906,39.741z M41.414,39.741c-1.935,0-3.51-1.573-3.51-3.511
				c0-1.934,1.574-3.51,3.51-3.51c1.937,0,3.51,1.574,3.51,3.51C44.924,38.168,43.351,39.741,41.414,39.741z M48.382,29.375h-0.92
				c-0.505,0-0.917-0.411-0.917-0.919v-0.918h1.835v1.837H48.382z"/>
		</g>
	</g>
	<g>
		<g>
			<path fill="#C91F26" d="M12.906,34.558c-0.924,0-1.674,0.752-1.674,1.673c0,0.925,0.751,1.675,1.674,1.675
				s1.673-0.751,1.673-1.675C14.579,35.31,13.828,34.558,12.906,34.558z"/>
		</g>
	</g>
	<g>
		<g>
			<path fill="#C91F26" d="M41.414,34.558c-0.923,0-1.673,0.752-1.673,1.673c0,0.925,0.752,1.675,1.673,1.675
				c0.924,0,1.674-0.751,1.674-1.675C43.088,35.31,42.338,34.558,41.414,34.558z"/>
		</g>
	</g>
	<g>
		<g>
			<path fill="#C91F26" d="M31.911,31.103H19.816c-0.447,0-0.809,0.362-0.809,0.81s0.363,0.809,0.809,0.809h12.095
				c0.447,0,0.81-0.363,0.81-0.809C32.722,31.465,32.359,31.103,31.911,31.103z"/>
		</g>
	</g>
	<g>
		<g>
			<path fill="#C91F26" d="M11.178,27.647H0.81C0.362,27.647,0,28.01,0,28.456c0,0.448,0.363,0.811,0.81,0.811h10.368
				c0.448,0,0.81-0.362,0.81-0.811C11.987,28.01,11.624,27.647,11.178,27.647z"/>
		</g>
	</g>
	<g>
		<g>
			<path fill="#C91F26" d="M6.968,24.191H1.41c-0.448,0-0.81,0.362-0.81,0.809c0,0.448,0.363,0.811,0.81,0.811h5.558
				c0.448,0,0.81-0.363,0.81-0.811C7.777,24.553,7.414,24.191,6.968,24.191z"/>
		</g>
	</g>
	<g>
		<g>
			<path fill="#C91F26" d="M26.438,16.652c-0.317-0.317-0.83-0.317-1.146,0l-7.203,7.203l-3.746-3.748
				c-0.318-0.316-0.83-0.316-1.146,0c-0.315,0.317-0.316,0.829,0,1.146l4.319,4.319c0.158,0.158,0.366,0.236,0.573,0.236
				c0.208,0,0.416-0.078,0.574-0.236l7.776-7.775C26.753,17.481,26.753,16.969,26.438,16.652z"/>
		</g>
	</g>
</g>
<g id="devoluciones" display="none">
	<g display="inline">
		<g>
			<g>
				<path fill="#C91F26" d="M41.666,27.527V11.458c0-0.197-0.068-0.37-0.164-0.527l0.016-0.009l-6.25-10.417
					C35.08,0.192,34.74,0,34.375,0H7.292C6.925,0,6.586,0.192,6.398,0.505l-6.25,10.417l0.015,0.009C0.069,11.088,0,11.262,0,11.458
					v29.167c0,0.576,0.466,1.043,1.042,1.043h26.485C28.893,46.469,33.309,50,38.541,50C44.859,50,50,44.859,50,38.543
					C50,33.309,46.469,28.893,41.666,27.527z M33.785,2.083l5,8.333H26.895l-1.666-8.333H33.785z M18.562,2.083h4.544l1.684,8.333
					h-7.894L18.562,2.083z M25,12.5v4.167h-8.337L16.649,12.5H25z M7.882,2.083h8.558l-1.65,8.333H2.881L7.882,2.083z
					 M27.137,39.584H2.083V12.5h12.5v5.208c0,0.576,0.466,1.042,1.042,1.042h10.416c0.576,0,1.043-0.466,1.043-1.042L27.066,12.5
					h12.518v14.637c-0.344-0.031-0.691-0.053-1.043-0.053c-6.316,0-11.457,5.141-11.457,11.459
					C27.084,38.895,27.105,39.24,27.137,39.584z M38.541,47.918c-5.17,0-9.375-4.207-9.375-9.375c0-5.17,4.205-9.375,9.375-9.375
					s9.375,4.205,9.375,9.375C47.916,43.711,43.711,47.918,38.541,47.918z"/>
				<path fill="#C91F26" d="M35.994,37.326c0.479-0.32,0.607-0.967,0.289-1.445c-0.322-0.48-0.971-0.605-1.445-0.289l-0.965,0.645
					c0.85-1.719,2.623-2.901,4.668-2.901c1.734,0,3.348,0.856,4.32,2.297c0.322,0.478,0.971,0.603,1.445,0.279
					c0.477-0.322,0.604-0.97,0.278-1.445c-1.358-2.014-3.619-3.215-6.045-3.215c-4.021,0-7.291,3.271-7.291,7.293
					c0,0.384,0.211,0.735,0.549,0.918c0.154,0.082,0.324,0.123,0.492,0.123c0.201,0,0.401-0.06,0.578-0.176L35.994,37.326z"/>
				<path fill="#C91F26" d="M45.283,37.623c-0.34-0.18-0.748-0.162-1.07,0.053l-3.125,2.082c-0.477,0.32-0.607,0.967-0.287,1.445
					c0.318,0.48,0.967,0.604,1.443,0.289l0.967-0.645c-0.852,1.719-2.625,2.901-4.67,2.901c-1.732,0-3.346-0.856-4.318-2.297
					c-0.324-0.479-0.971-0.603-1.447-0.279c-0.477,0.32-0.602,0.97-0.278,1.445c1.358,2.014,3.621,3.215,6.045,3.215
					c4.021,0,7.293-3.271,7.293-7.293C45.834,38.158,45.621,37.805,45.283,37.623z"/>
			</g>
		</g>
	</g>
</g>
<g id="sucursales" display="none">
	<g display="inline">
		<g>
			<path fill="#C91F26" d="M30.896,37.314c4.215-6.988,9.541-16.814,9.541-21.867C40.438,6.928,33.512,0,24.989,0
				C16.469,0,9.542,6.928,9.542,15.449c0,5.051,5.327,14.877,9.54,21.868c-5,0.377-16.377,1.734-16.377,6.233
				c0,4.431,11.551,6.45,22.297,6.45c10.734,0,22.295-2.021,22.295-6.45C47.286,39.051,35.896,37.693,30.896,37.314L30.896,37.314z
				 M11.673,15.449c0-7.347,5.98-13.327,13.316-13.327c7.348,0,13.328,5.98,13.328,13.327c0,6.418-10.225,22.52-13.328,27.254
				C21.888,37.969,11.673,21.867,11.673,15.449z M24.989,47.866c-13.051,0-20.163-2.856-20.163-4.327
				c0-1.133,4.694-3.57,15.51-4.191c2.03,3.273,3.571,5.592,3.775,5.865c0.275,0.368,1.083,0.807,1.766,0
				c0.213-0.254,1.744-2.592,3.775-5.865c10.815,0.621,15.51,3.049,15.51,4.191C45.152,45.021,38.04,47.866,24.989,47.866
				L24.989,47.866z"/>
			<path fill="#C91F26" d="M31.714,15.449c0-3.715-3.01-6.725-6.725-6.725c-3.714,0-6.724,3.01-6.724,6.725
				c0,3.713,3.01,6.724,6.724,6.724C28.704,22.173,31.714,19.162,31.714,15.449z M20.388,15.449c0-2.542,2.061-4.602,4.602-4.602
				s4.604,2.061,4.604,4.602c0,2.541-2.063,4.603-4.604,4.603S20.388,17.99,20.388,15.449z"/>
		</g>
	</g>
</g>
<g id="service" display="none">
	<g display="inline">
		<path fill="#C91F26" d="M8.794,38.666c-0.7,0-1.373,0.176-1.97,0.504C3.679,35.139,1.953,30.131,1.953,25
			C1.953,12.292,12.292,1.953,25,1.953c1.545,0,3.09,0.154,4.59,0.457c0.527,0.107,1.044-0.235,1.15-0.764
			c0.107-0.529-0.234-1.044-0.764-1.151C28.35,0.167,26.675,0,25,0C18.322,0,12.044,2.601,7.322,7.322C2.6,12.043,0,18.323,0,25
			c0,5.617,1.907,11.098,5.38,15.492c-0.447,0.668-0.688,1.453-0.688,2.275c0,1.096,0.427,2.127,1.202,2.899
			c0.774,0.774,1.804,1.201,2.9,1.201c1.096,0,2.125-0.427,2.9-1.201c0.775-0.772,1.201-1.806,1.201-2.899
			c0-1.096-0.426-2.125-1.201-2.9C10.919,39.094,9.89,38.666,8.794,38.666z M10.313,44.287c-0.405,0.406-0.945,0.629-1.519,0.629
			c-0.574,0-1.113-0.223-1.519-0.629c-0.406-0.406-0.629-0.945-0.629-1.52c0-0.576,0.224-1.113,0.629-1.521
			c0.406-0.403,0.945-0.629,1.519-0.629c0.574,0,1.113,0.226,1.519,0.629c0.406,0.405,0.629,0.944,0.629,1.521
			C10.942,43.342,10.719,43.881,10.313,44.287z"/>
		<path fill="#C91F26" d="M44.619,9.505c1.063-1.593,0.891-3.77-0.514-5.174c-0.773-0.774-1.806-1.201-2.9-1.201
			c-1.096,0-2.125,0.427-2.9,1.201c-0.772,0.775-1.201,1.805-1.201,2.9c0,1.095,0.429,2.125,1.201,2.9
			c0.775,0.775,1.805,1.201,2.9,1.201c0.701,0,1.373-0.175,1.971-0.503c3.145,4.032,4.871,9.04,4.871,14.17
			c0,12.708-10.338,23.046-23.047,23.046c-1.53,0-3.06-0.15-4.546-0.449c-0.529-0.105-1.043,0.238-1.149,0.768
			c-0.105,0.527,0.237,1.043,0.766,1.148C21.683,49.836,23.342,50,25,50c6.678,0,12.955-2.602,17.678-7.322
			C47.398,37.955,50,31.678,50,25C50,19.382,48.092,13.9,44.619,9.505z M39.688,8.751c-0.405-0.406-0.631-0.945-0.631-1.52
			c0-0.574,0.226-1.113,0.631-1.519c0.404-0.406,0.945-0.629,1.519-0.629s1.112,0.224,1.521,0.629c0.838,0.838,0.838,2.201,0,3.039
			C42.32,9.156,41.781,9.38,41.206,9.38S40.092,9.156,39.688,8.751z"/>
		<path fill="#C91F26" d="M20.97,41.797c0,0.539,0.438,0.977,0.977,0.977h6.106c0.539,0,0.977-0.438,0.977-0.977v-1.893
			c1.285-0.346,2.513-0.855,3.666-1.521l1.337,1.337c0.184,0.184,0.432,0.286,0.69,0.286c0.258,0,0.508-0.104,0.689-0.286
			l4.316-4.318c0.381-0.383,0.381-1,0-1.381l-1.336-1.336c0.666-1.154,1.174-2.381,1.52-3.666h1.887
			c0.539,0,0.977-0.437,0.977-0.978v-6.105c0-0.539-0.438-0.977-0.977-0.977h-1.887c-0.346-1.283-0.854-2.512-1.52-3.665
			l1.328-1.327c0.184-0.184,0.286-0.432,0.286-0.691c-0.002-0.259-0.104-0.508-0.286-0.691l-4.32-4.315
			c-0.381-0.381-0.998-0.381-1.381,0l-1.324,1.326c-1.154-0.665-2.383-1.173-3.666-1.519V8.203c0-0.54-0.438-0.977-0.978-0.977
			h-6.106c-0.539,0-0.977,0.437-0.977,0.977v1.876c-1.284,0.345-2.511,0.854-3.665,1.519l-1.326-1.326c-0.381-0.381-1-0.381-1.381,0
			l-4.319,4.316c-0.184,0.183-0.287,0.432-0.287,0.69c0,0.26,0.103,0.508,0.286,0.691l1.328,1.327
			c-0.665,1.153-1.173,2.381-1.519,3.665H8.205c-0.54,0-0.977,0.438-0.977,0.977l-0.003,6.105c0,0.26,0.103,0.508,0.286,0.691
			c0.183,0.183,0.432,0.285,0.691,0.285h1.886c0.346,1.285,0.854,2.512,1.519,3.666l-1.335,1.336c-0.381,0.381-0.381,0.998,0,1.381
			l4.316,4.318c0.183,0.184,0.432,0.286,0.69,0.286l0,0c0.259,0,0.507-0.104,0.69-0.286l1.336-1.337
			c1.154,0.664,2.381,1.175,3.665,1.521L20.97,41.797L20.97,41.797z M17.688,36.33c-0.386-0.25-0.895-0.195-1.221,0.131
			l-1.189,1.188l-2.936-2.938l1.188-1.188c0.325-0.326,0.379-0.834,0.13-1.221c-0.886-1.369-1.508-2.871-1.85-4.466
			c-0.097-0.448-0.494-0.771-0.955-0.771H9.179l0.002-4.152h1.675c0.46,0,0.858-0.321,0.955-0.771
			c0.342-1.592,0.964-3.094,1.85-4.464c0.25-0.386,0.195-0.896-0.13-1.22l-1.18-1.182l2.938-2.935l1.179,1.18
			c0.326,0.325,0.834,0.379,1.221,0.129c1.37-0.885,2.872-1.508,4.464-1.85c0.45-0.097,0.771-0.495,0.771-0.955V9.18h4.153v1.667
			c0,0.46,0.321,0.858,0.771,0.955c1.592,0.342,3.094,0.964,4.465,1.85c0.387,0.25,0.896,0.196,1.22-0.13l1.18-1.179l2.938,2.935
			l-1.18,1.181c-0.326,0.325-0.38,0.835-0.13,1.221c0.886,1.37,1.507,2.872,1.851,4.464c0.096,0.45,0.494,0.771,0.953,0.771h1.68
			v4.151h-1.68c-0.459,0-0.857,0.322-0.953,0.771c-0.342,1.592-0.965,3.096-1.851,4.465c-0.25,0.387-0.196,0.895,0.13,1.221
			l1.188,1.188l-2.936,2.938l-1.188-1.188c-0.325-0.325-0.834-0.381-1.222-0.131c-1.369,0.888-2.871,1.508-4.463,1.851
			c-0.451,0.098-0.771,0.493-0.771,0.955v1.686h-4.153v-1.686c0-0.459-0.322-0.857-0.771-0.955
			C20.56,37.838,19.058,37.217,17.688,36.33z"/>
		<path fill="#C91F26" d="M33.068,25c0-4.449-3.619-8.07-8.068-8.07s-8.069,3.621-8.069,8.07c0,4.449,3.62,8.068,8.069,8.068
			S33.068,29.449,33.068,25z M18.884,25c0-3.373,2.744-6.117,6.116-6.117c3.373,0,6.116,2.744,6.116,6.117
			c0,3.371-2.743,6.115-6.116,6.115S18.884,28.373,18.884,25z"/>
		<path fill="#C91F26" d="M33.992,3.693c0.257,0,0.509-0.104,0.689-0.286c0.182-0.183,0.286-0.435,0.286-0.691
			c0-0.256-0.104-0.508-0.286-0.69C34.5,1.844,34.248,1.74,33.992,1.74c-0.258,0-0.51,0.104-0.689,0.286
			c-0.183,0.183-0.287,0.434-0.287,0.69c0,0.258,0.104,0.509,0.287,0.691C33.482,3.589,33.734,3.693,33.992,3.693z"/>
		<path fill="#C91F26" d="M16.051,46.324c-0.257,0-0.509,0.104-0.69,0.285c-0.181,0.181-0.286,0.434-0.286,0.69
			s0.104,0.509,0.286,0.688c0.182,0.182,0.434,0.287,0.69,0.287c0.256,0,0.509-0.104,0.69-0.287
			c0.181-0.182,0.286-0.434,0.286-0.688c0-0.258-0.104-0.51-0.286-0.69C16.559,46.428,16.308,46.324,16.051,46.324z"/>
	</g>
</g>
</svg>
